<?xml version="1.0" encoding="UTF-8"?>
<svg id="Layer_1" data-name="Layer 1" xmlns="http://www.w3.org/2000/svg" width="512" height="512" viewBox="0 0 512 512">
  <defs>
    <style>
      .cls-1 {
        isolation: isolate;
      }

      .cls-2 {
        fill: #fff;
      }

      .cls-3 {
        fill: #c04b2c;
      }
    </style>
  </defs>
  <g class="cls-1">
    <g class="cls-1">
      <path class="cls-2" d="M461.48,292.18l-75.74,198.63h-90.74l-38.95-99.32-39.2,99.32h-90.77l-75.71-198.63h85.12l35.17,117.12,44.3-117.12h81.9l44.03,117.12,35.45-117.12h85.13Z"/>
    </g>
  </g>
  <g class="cls-1">
    <g class="cls-1">
      <path class="cls-2" d="M309.83,161.59c0,55.03-36.22,68.86-82.71,68.86H98.18c-60.34,0-84.19-23.54-84.19-75.04h82.43c.89,11.17,12.95,11.48,23.25,11.48,31.49,0,86.55.29,100.96.29,7.95,0,10.89-3.24,10.89-11.48,0-5.3-3.54-7.65-11.48-7.65-40.63-.89-82.71-2.06-123.34-3.24-51.51,0-82.41-10.59-82.41-54.77,0-55.03,36.2-68.86,82.71-68.86h124.51c60.05,0,83.88,23.54,83.88,75.04h-82.4c-.89-11.48-12.65-11.77-23.26-11.77h-96.25c-7.95,0-10.88,2.95-10.88,11.19,0,5.3,2.94,7.36,10.88,7.36,40.63.89,82.71,2.06,123.64,3.24,51.51,0,82.71,11.17,82.71,55.34Z"/>
    </g>
  </g>
  <g class="cls-1">
    <g class="cls-1">
      <path class="cls-3" d="M304.01,196.68c0,14.19,8.22,43.63,34.8,43.63h27.85c23.73,0,38.61-17.45,38.61-46.9v-123.64h92.73v123.64c0,88-53.18,125.46-107.62,129.08h-66.77c-57.27,0-112.01-48.71-112.01-125.81h92.41Z"/>
    </g>
  </g>
</svg>